# xmcd
#
# Track frame offsets:
#	150
#	16239
#	34719
#	49849
#	62385
#	77329
#	92036
#	107886
#	119752
#	135594
#
# Disc length: 2038 seconds
#
# Revision: 0
# Processed by: cddbd v1.5.1PL0 Copyright (c) Steve Scherf et al.
# Submitted via: dBpowerAMP V4.0
#
DISCID=7907f40a
DTITLE=Ricky Lee Ponder - Simple Man
DYEAR=1900
DGENRE=Country
TTITLE0=Simple Man
TTITLE1=Mr. Galileo
TTITLE2=Caterpillar
TTITLE3=Real World
TTITLE4=Boomerang
TTITLE5=Remember
TTITLE6=Cold Unit
TTITLE7=Doghouse
TTITLE8=Houston
TTITLE9=Turn Me Loose
EXTD=
EXTT0=
EXTT1=
EXTT2=
EXTT3=
EXTT4=
EXTT5=
EXTT6=
EXTT7=
EXTT8=
EXTT9=
PLAYORDER=
